# xmcd
#
# Track frame offsets:
#	150
#	13738
#	26573
#	40030
#	55068
#	72165
#	83885
#	100661
#	115276
#	128453
#	143967
#	158178
#	170122
#	185649
#	200234
#
# Disc length: 2879 seconds
#
# Revision: 1
# Processed by: cddbd v1.5.1PL0 Copyright (c) Steve Scherf et al.
# Submitted via: EasyCDDAExtractor 5.0.6
#
DISCID=cf0b3d0f
DTITLE=TRIO ALTO ASTRAL
DYEAR=1900
DGENRE=
TTITLE0=NINGUÉM MERECE
TTITLE1=TOCA AQUELA
TTITLE2=SÓ NÃO PODE LARGAR
TTITLE3=TIRA O ZÓI
TTITLE4=BREGA CHICK
TTITLE5=AS MULHERES E AS FRUTAS
TTITLE6=SAUDADE PICA PAU
TTITLE7=O MALA
TTITLE8=QUEM TEM PRESSA
TTITLE9=GANGORRA DO AMOR
TTITLE10=O GRITO DA SANFONA
TTITLE11=SE OS OLHOS NÃO VÊEM
TTITLE12=AMOR NÃO É BRINCADEIRA
TTITLE13=FELICIDADE
TTITLE14=X-SALADA
EXTD=
EXTT0=
EXTT1=
EXTT2=
EXTT3=
EXTT4=
EXTT5=
EXTT6=
EXTT7=
EXTT8=
EXTT9=
EXTT10=
EXTT11=
EXTT12=
EXTT13=
EXTT14=
PLAYORDER=
